PathFileType	4	(X/Y/Z)	Patient4_TMGait_0pt7_01_left_23.trc.trc
DataRate	CameraRate	NumFrames	NumMarkers	Units	OrigDataRate	OrigDataStartFrame	OrigNumFrames
86.419753086420	86.419753086420	6	33	mm	86.419753086420	36	       141
Frame#	Time	Sacral			L.Shoulder			Chest			R.Shoulder			Neck			R.ASIS			L.ASIS			R.Thigh.Superior			R.Thigh.Lateral			R.Thigh.Inferior			R.Patella			L.Thigh.Superior			L.Thigh.Lateral			L.Thigh.Inferior			L.Patella			L.Shank.Superior			L.Shank.Lateral			L.Shank.Inferior			R.Shank.Superior			R.Shank.Lateral			R.Shank.Inferior			R.Heel			R.Midfoot.Superior			R.Midfoot.Lateral			R.Toe			L.Heel			L.Midfoot.Lateral			L.Midfoot.Superior			L.Toe			L.Elbow			L.Wrist			R.Elbow			R.Wrist			
		X1	Y1	Z1	X2	Y2	Z2	X3	Y3	Z3	X4	Y4	Z4	X5	Y5	Z5	X6	Y6	Z6	X7	Y7	Z7	X8	Y8	Z8	X9	Y9	Z9	X10	Y10	Z10	X11	Y11	Z11	X12	Y12	Z12	X13	Y13	Z13	X14	Y14	Z14	X15	Y15	Z15	X16	Y16	Z16	X17	Y17	Z17	X18	Y18	Z18	X19	Y19	Z19	X20	Y20	Z20	X21	Y21	Z21	X22	Y22	Z22	X23	Y23	Z23	X24	Y24	Z24	X25	Y25	Z25	X26	Y26	Z26	X27	Y27	Z27	X28	Y28	Z28	X29	Y29	Z29	X30	Y30	Z30	X31	Y31	Z31	X32	Y32	Z32	X33	Y33	Z33	

36	26.865000000000	805.254811164951	1008.741286980991	475.024311480694	981.569188451954	1431.011009122598	290.980373150678	1101.063111967596	1351.559874327046	436.654275744264	1042.776341211795	1428.251282904425	619.659121973603	1003.992871857808	1486.280364160040	445.216923187645	1032.060369454518	931.631434959592	580.165913695347	1008.960560683890	953.764847164037	307.010171597702	1027.372995714750	719.098782974055	562.453890819192	921.186294806549	627.990993456053	623.670724978234	988.544067290842	556.344845448257	551.884646012666	964.289698394848	457.334292017370	566.687976960983	1082.207528680068	768.222096614975	349.065247591737	1022.119734508156	637.374337097575	281.983680640131	1117.279685590928	574.293216932102	348.492311948924	1130.349637435124	503.045872635175	356.519430293523	1110.658256641855	428.681933683541	347.133931875612	1035.970589226033	306.338404876426	292.224094078701	1097.014550849289	199.841604839452	362.306386106974	895.644248558899	389.221310309267	571.168679892807	781.692303089970	330.138726057614	628.115793071246	784.948607811705	221.558304450501	573.031388331291	596.471649376764	110.004285834087	536.743753797112	774.045968456764	106.743242567464	582.132971490322	668.834515507805	69.113141885022	610.593340143545	868.479967196333	35.806351090144	604.691901563140	981.932584033612	38.864046394716	397.882442006450	1058.599249543472	36.710029785389	319.473983754898	1140.263668618823	98.019372620369	349.416430104698	1269.974402857409	45.338644804576	325.068845671701	827.927976708235	1116.757736816871	190.843353313105	810.288677586742	855.684630664408	182.921330050971	1145.402671822965	1107.638131898846	746.338910947668	1347.444287320906	1193.743615403329	627.360667455955	
37	26.876571428571	806.359556097340	1009.903630245197	471.908484648606	983.232179967960	1432.508090551798	288.755323038582	1102.193622485257	1352.938537962508	434.756673601133	1043.223708636504	1429.449445687218	617.579642324931	1005.052345627016	1487.562931748030	443.058688401600	1032.966511308911	932.890097425721	577.232600514402	1010.467692722586	955.126464469436	304.293459238300	1031.369887808879	720.539788708751	560.326869284280	927.249660274619	628.032999704007	622.252362625245	996.254858700060	556.869647498919	550.928129879831	972.742355101434	456.305458982127	567.471045722221	1082.872362561138	768.160907065238	345.917526569402	1020.537419995837	637.429800595568	280.353848040575	1115.202592038308	573.563571598775	346.690869004036	1127.477667856008	502.409891900038	355.689393825653	1107.115581525244	428.048093589800	346.496674499626	1031.436639310098	306.395349949377	291.459222835224	1090.614115974379	199.451865848252	362.286080630158	901.663282417387	389.393890804055	571.705950525904	785.453331665985	334.435738805834	628.217887662014	785.750715849948	225.323166264869	574.296990430894	593.832498065186	121.598061133854	538.055183896096	770.818039486041	108.998884427585	583.634378604797	663.881307648096	76.195356413516	611.355542957144	860.605332997084	35.030592027792	604.795034306572	973.875207607731	38.841294324120	397.820595514518	1050.521772889865	36.722111242390	319.422899275218	1132.204144124612	98.001538732069	349.472145807496	1261.954784426429	45.168143413863	324.956025525511	833.276168946800	1116.529689179426	186.658660828801	826.641018836928	854.806348887422	177.822501260149	1135.498726074944	1105.908244698434	746.991415311948	1342.535138703415	1181.593038379877	629.652419511782	
38	26.888142857143	807.370207213467	1010.850398852584	468.850083410797	984.847545818653	1433.883216879315	286.554147452268	1103.213174149150	1354.227654805919	432.941048258730	1043.437142808280	1430.500191055887	615.564143813282	1005.942995159894	1488.716383939029	440.928109823186	1033.800758098939	934.042521977331	574.394245164773	1011.894045119185	956.281959203960	301.689967011000	1035.943824431354	722.036249308251	558.362838976915	934.095404981134	627.939978141042	620.890985232357	1004.828265197996	557.425402307601	549.928574389391	982.102984098527	455.355617448421	567.974298256506	1083.258027807196	767.668937724999	342.668658761783	1018.573914080480	637.289127611445	278.623747296254	1112.727499311216	572.638256968111	344.817971161278	1124.190523782285	501.623356416450	354.636105418230	1103.192718876596	427.300027768842	345.642329999031	1026.519451456827	306.269761723935	290.655669395728	1084.016670345116	198.977494236232	362.170667728999	908.687663940493	389.581316006101	572.057433694025	790.364257836634	338.946782567790	628.282935443556	787.434226451870	229.464236132428	575.498152918709	592.364175939682	134.352959115647	539.404559252667	768.162274184021	111.797643547744	585.128971952823	659.677338432415	84.396932156242	612.173713519223	852.797604488081	34.015062260599	605.024580118939	965.738697476297	38.791615448440	397.778073556013	1042.371689837344	36.667420342092	319.389015837976	1124.100268463992	97.895694507455	349.539720386521	1253.885992960633	44.868621898491	324.908364898859	838.571177927404	1116.306057796972	182.312017177030	843.729670938344	854.407681280207	172.703777858921	1125.059918334270	1104.245814073661	747.328405657258	1337.356251300213	1167.929499712727	632.396408494636	
39	26.899714285714	808.255075808692	1011.553508489711	465.896193937322	986.405089864481	1435.079136352233	284.385271392940	1104.112612585554	1355.375653349227	431.224050079569	1043.421853136722	1431.381749518750	613.630999233900	1006.675633352879	1489.713105187280	438.827720006141	1034.544029749917	935.044878963677	571.689230130307	1013.195150190984	957.222021185165	299.216612162309	1041.031277587046	723.604488340822	556.530629292415	941.672788177453	627.758774948338	619.560511546239	1014.157995467327	558.064840160302	548.818157295714	992.292328893724	454.542332855638	568.091656994731	1083.346813685494	766.826504115535	339.404417057338	1016.331893344610	637.037599119418	276.778916717485	1109.918069163327	571.585884650140	342.865755320055	1120.543615968893	500.725403578577	353.325761864230	1098.949727367111	426.468492764004	344.554176054740	1021.286220155696	305.999797767711	289.773283086322	1077.263152382107	198.441284069745	361.934272754576	916.654871448695	389.827682266815	572.133170269996	796.414220791945	343.660604970782	628.267358345881	790.019184799271	233.996571045430	576.560386275295	592.191110854314	148.164584913478	540.749259908500	766.151476537095	115.218110300926	586.547708108152	656.375124322686	93.716115285829	613.025803374978	845.167039854492	32.791528597458	605.376562876240	957.558905888445	38.734359135562	397.735660339037	1034.183611924291	36.566233565635	319.351334478736	1115.983214932390	97.724232102896	349.590750694228	1245.795278951677	44.471321200868	324.902185316195	843.901308049419	1115.993541452608	177.792110207128	861.485671444259	854.489930910671	167.590817821535	1114.204446711942	1102.642247520168	747.291954774904	1331.769575080916	1152.827316960132	635.577330119873	
40	26.911285714286	808.987695321851	1012.012525652517	463.084128403625	987.889172169551	1436.061640622952	282.263519651466	1104.885033387347	1356.348007338216	429.619453361783	1043.197550902424	1432.088286897585	611.798188628822	1007.270077253759	1490.544090836440	436.770314884437	1035.177693968748	935.876466944370	569.144780201427	1014.333416115038	957.961985941672	296.877180232839	1046.530927698845	725.280130832156	554.771299021952	949.904819237831	627.561768989694	618.236637607606	1024.111478431476	558.863389300931	547.538303617794	1003.220416681441	453.938698792291	567.763668770017	1083.133302989091	765.736725980664	336.186949807287	1013.880089433596	636.749884760285	274.825873141339	1106.829289027374	570.468085977073	340.825050807196	1116.593654419155	499.757220421504	351.755565519705	1094.442797303520	425.586603021959	343.239887458500	1015.794707744152	305.629488679025	288.794564255584	1070.388871449904	197.869120659474	361.566244220602	925.487380324611	390.192406078155	571.874551414494	803.563175974478	348.564451808310	628.133620178723	793.526324140479	238.920486775828	577.416486147317	593.411701550676	162.845327853801	542.037771465566	764.885895918764	119.300752765341	587.808719669136	654.137771810204	104.069440395253	613.875949828627	837.885601356393	31.448769155881	605.818413084321	949.365594419240	38.684036828095	397.679758066081	1025.984685028487	36.438827293062	319.294628036469	1107.873610159504	97.514136152810	349.601721797568	1237.701568259080	44.017247939747	324.911893720041	849.371983809677	1115.520612236380	173.097210902498	879.844143210086	855.058682429563	162.506840586546	1103.051607396506	1101.090996917566	746.843699813612	1325.624913650776	1136.403502634110	639.163625742345	
41	26.922857142857	809.549077181322	1012.254099143766	460.437496931107	989.280885109245	1436.820869963622	280.207757589495	1105.526483521865	1357.130462310972	428.137533287574	1042.792227659607	1432.629061180295	610.081344270162	1007.751358566523	1491.217398411221	434.775918099387	1035.685455872465	936.539579091364	566.778947469102	1015.284584863507	958.535705506392	294.670043652797	1052.312779064914	727.111697059927	553.008925668430	958.688919341098	627.439448861750	616.901657007847	1034.537143301735	559.910139919939	546.051436022758	1014.787544587762	453.628678061714	566.984422091752	1082.625891327678	764.502474539287	333.049396334678	1011.247175975550	636.480621152688	272.792107778179	1103.500000053585	569.331448661248	338.691552882050	1112.387874933110	498.755895349935	349.952107818800	1089.715571520311	424.686374600243	341.729221073376	1010.087198290163	305.203109695902	287.722953997288	1063.421246791781	197.286851191475	361.070290877475	935.096662483418	390.744717166655	571.263217075160	811.742643422970	353.639104699200	627.853961254848	797.976233050298	244.213002632951	578.013647112142	596.086879652070	178.116507673743	543.214612589849	764.492375076306	124.033653359420	588.822910947351	653.129889872311	115.277602601451	614.675644785390	831.197005083769	30.135118107970	606.286211368876	941.179654800596	38.650003965647	397.602827283997	1017.792951705922	36.302750723917	319.210369016893	1099.782050850620	97.290966130155	349.556986234393	1229.615282474512	43.546756396678	324.915240477805	855.092557339548	1114.845313931471	168.239175910750	898.740872098276	856.128211729360	157.475882490832	1091.718374693032	1099.593110036402	745.966730735340	1318.768630627832	1118.819946337358	643.104622443150	
